<svg width="128" height="106" viewBox="0 0 128 106" fill="none" xmlns="http://www.w3.org/2000/svg">
<path fill-rule="evenodd" clip-rule="evenodd" d="M69.3722 100.256V88.8247H73.2971C74.1801 88.8247 74.867 88.8737 75.3085 88.9718C75.9463 89.119 76.5351 89.4134 76.9766 89.8059C77.5653 90.2965 78.0069 90.9833 78.3503 91.7683C78.6447 92.5533 78.7919 93.4854 78.7919 94.4667C78.7919 95.3498 78.6938 96.0857 78.4975 96.7725C78.3013 97.4594 78.056 97.9991 77.7125 98.4406C77.4182 98.8822 77.0747 99.2256 76.6823 99.4709C76.2898 99.7162 75.8482 99.9124 75.3085 100.06C74.7689 100.207 74.1801 100.256 73.4933 100.256H69.3722ZM70.8931 98.9312H73.3461C74.082 98.9312 74.6708 98.8821 75.1123 98.735C75.5539 98.5878 75.8973 98.3915 76.1426 98.1462C76.486 97.8028 76.7804 97.3122 76.9766 96.7235C77.1729 96.1347 77.271 95.3988 77.271 94.5157C77.271 93.3383 77.0747 92.4061 76.6823 91.7683C76.2898 91.1305 75.7992 90.689 75.2595 90.4927C74.867 90.3455 74.1801 90.2474 73.2971 90.2474H70.8931V98.9312ZM80.9015 100.256V88.8247H89.1437V90.1493H82.4224V93.6326H88.7512V94.9573H82.4224V98.8331H89.4381V100.158H80.9015V100.256ZM91.008 96.5763L92.4308 96.4291C92.4799 97.0178 92.6761 97.4594 92.9214 97.8519C93.1667 98.1953 93.5592 98.4897 94.0498 98.735C94.5895 98.9803 95.1292 99.0784 95.816 99.0784C96.4048 99.0784 96.8954 98.9803 97.3369 98.8331C97.7785 98.6368 98.1219 98.4406 98.3181 98.1462C98.5144 97.8519 98.6616 97.5084 98.6616 97.165C98.6616 96.8216 98.5634 96.4782 98.3672 96.2329C98.171 95.9876 97.8275 95.7422 97.3369 95.546C97.0425 95.4479 96.3557 95.2516 95.3254 95.0063C94.2951 94.761 93.5592 94.5157 93.1177 94.2704C92.578 93.9761 92.1855 93.6326 91.8912 93.1911C91.6458 92.7495 91.4987 92.308 91.4987 91.7683C91.4987 91.1796 91.6458 90.6399 91.9893 90.1493C92.3327 89.6587 92.7742 89.2662 93.412 89.0209C94.0498 88.7756 94.7367 88.6284 95.5217 88.6284C96.3557 88.6284 97.0916 88.7756 97.7785 89.0209C98.4163 89.3153 98.9069 89.7078 99.2503 90.1984C99.5937 90.738 99.79 91.3268 99.79 92.0136L98.3181 92.1117C98.22 91.3758 97.9747 90.8362 97.5332 90.4927C97.0916 90.1002 96.4048 89.9531 95.5217 89.9531C94.5895 89.9531 93.9517 90.1002 93.5102 90.4437C93.1177 90.7871 92.8724 91.1796 92.8724 91.6702C92.8724 92.0627 93.0195 92.4061 93.3139 92.7005C93.6083 92.9458 94.3442 93.2401 95.5707 93.5345C96.7972 93.8289 97.6313 94.0742 98.1219 94.2704C98.8087 94.5648 99.2993 94.9573 99.5937 95.4479C99.8881 95.9385 100.084 96.4782 100.084 97.0669C100.084 97.6556 99.8881 98.2444 99.5447 98.784C99.2012 99.3237 98.7106 99.7162 98.0238 100.06C97.386 100.354 96.6501 100.501 95.816 100.501C94.7857 100.501 93.9026 100.354 93.2158 100.06C92.5289 99.7652 91.9893 99.3237 91.5477 98.6859C91.2534 98.0481 91.008 97.3613 91.008 96.5763ZM102.39 100.256V88.8247H103.911V100.256H102.39ZM111.908 95.7913V94.4667H116.765V98.6859C116.029 99.2746 115.244 99.7162 114.459 100.011C113.674 100.305 112.84 100.452 112.055 100.452C110.927 100.452 109.897 100.207 109.013 99.7162C108.081 99.2256 107.394 98.5387 106.953 97.6556C106.462 96.7235 106.266 95.7423 106.266 94.6139C106.266 93.4854 106.511 92.4552 106.953 91.523C107.394 90.5418 108.081 89.8549 108.964 89.3643C109.847 88.9228 110.829 88.6775 111.957 88.6775C112.791 88.6775 113.527 88.8247 114.214 89.07C114.901 89.3153 115.391 89.7078 115.784 90.1984C116.176 90.689 116.471 91.2777 116.667 92.0627L115.293 92.4552C115.097 91.8664 114.901 91.4249 114.655 91.0815C114.41 90.738 114.018 90.4927 113.576 90.2965C113.085 90.1002 112.595 90.0021 112.006 90.0021C111.319 90.0021 110.731 90.1002 110.24 90.2965C109.749 90.4927 109.308 90.7871 109.013 91.1305C108.719 91.4739 108.474 91.8664 108.278 92.2589C107.983 92.9458 107.836 93.7308 107.836 94.5648C107.836 95.5951 108.032 96.4291 108.376 97.116C108.719 97.8028 109.259 98.2934 109.897 98.6368C110.583 98.9803 111.27 99.1275 112.006 99.1275C112.644 99.1275 113.282 98.9803 113.92 98.735C114.557 98.4897 114.999 98.1953 115.342 97.95V95.8404H111.908V95.7913ZM118.973 100.256V88.8247H120.543L126.528 97.8028V88.8247H128V100.256H126.43L120.445 91.2777V100.256H118.973ZM0 100.305V88.8737H1.56995L7.55539 97.8519V88.8737H9.02721V100.305H7.45726L1.47183 91.3268V100.305H0ZM11.5784 100.305V88.8737H19.8206V90.1984H13.0993V93.6817H19.4281V95.0063H13.0993V98.8822H20.115V100.207H11.5784V100.305ZM20.949 100.305L25.3154 88.8737H26.9345L31.5952 100.305H29.8781L28.5535 96.8707H23.7946L22.568 100.305H20.949ZM24.2361 95.5951H28.1119L26.9345 92.4552C26.591 91.4739 26.2967 90.689 26.1495 90.1002C26.0023 90.8362 25.8061 91.5721 25.5117 92.2589L24.2361 95.5951ZM32.8218 100.305V88.8737H37.1391C37.875 88.8737 38.4638 88.9228 38.8563 88.9718C39.3959 89.07 39.8865 89.2662 40.279 89.5115C40.6715 89.7568 40.9659 90.1493 41.2112 90.5909C41.4565 91.0815 41.5546 91.5721 41.5546 92.1608C41.5546 93.142 41.2603 93.9761 40.6225 94.6139C39.9847 95.3007 38.9053 95.6441 37.2863 95.6441H34.3427V100.305H32.8218ZM34.3427 94.3195H37.2863C38.2675 94.3195 38.9544 94.1232 39.3469 93.7798C39.7394 93.4364 39.9847 92.8967 39.9847 92.2589C39.9847 91.7683 39.8865 91.3758 39.6412 91.0324C39.3959 90.689 39.1016 90.4927 38.7091 90.3456C38.4638 90.2965 37.9732 90.2474 37.2863 90.2474H34.3427V94.3195ZM42.9774 94.712C42.9774 92.7986 43.468 91.3268 44.4983 90.2474C45.5286 89.1681 46.8041 88.6284 48.4231 88.6284C49.4534 88.6284 50.4347 88.8737 51.2687 89.3643C52.1027 89.8549 52.7405 90.5908 53.1821 91.4739C53.6236 92.357 53.8689 93.3873 53.8689 94.5157C53.8689 95.6932 53.6236 96.7235 53.1821 97.6066C52.6915 98.5387 52.0537 99.2256 51.2196 99.6671C50.3856 100.158 49.4534 100.354 48.4722 100.354C47.3929 100.354 46.4607 100.109 45.5776 99.569C44.7436 99.0293 44.1058 98.3425 43.6642 97.4594C43.2227 96.6744 42.9774 95.7423 42.9774 94.712ZM44.5473 94.761C44.5473 96.1347 44.9398 97.2141 45.6757 97.9991C46.4117 98.784 47.3438 99.1765 48.4722 99.1765C49.6006 99.1765 50.5328 98.784 51.2687 97.9991C52.0046 97.2141 52.348 96.0857 52.348 94.6139C52.348 93.6817 52.2008 92.8967 51.8574 92.1608C51.563 91.474 51.0724 90.9343 50.4837 90.5418C49.895 90.1493 49.2081 89.9531 48.4722 89.9531C47.3929 89.9531 46.4607 90.2965 45.7248 91.0324C44.9398 91.8174 44.5473 93.0439 44.5473 94.761ZM55.7823 100.305V88.8737H57.3032V98.9312H62.9452V100.256H55.7823V100.305Z" fill="white"/>
<path fill-rule="evenodd" clip-rule="evenodd" d="M0 73.6405V0H10.0084L48.6685 57.7938V0H58.0391V73.6405H48.0307L9.32158 15.7486V73.6405H0Z" fill="white"/>
<path d="M127.806 0.0487061H67.9512V9.76277H127.806V0.0487061Z" fill="white"/>
<path d="M127.806 31.8894H67.9512V41.6526H127.806V31.8894Z" fill="white"/>
<path d="M127.95 64.1707H68.0957V73.8847H127.95V64.1707Z" fill="white"/>
<path opacity="0.4" d="M127.951 83H0V84H127.951V83Z" fill="white"/>
<path opacity="0.4" d="M127.951 105H0V106H127.951V105Z" fill="white"/>
</svg>
