<svg width="128" height="106" fill="none" xmlns="http://www.w3.org/2000/svg"><path fill-rule="evenodd" clip-rule="evenodd" d="M69.372 100.256V88.825h3.925c.883 0 1.57.049 2.011.147.638.147 1.227.441 1.669.834.588.49 1.03 1.177 1.373 1.962.295.785.442 1.717.442 2.699 0 .883-.098 1.619-.294 2.305-.197.687-.442 1.227-.785 1.669a3.434 3.434 0 01-1.03 1.03 5.055 5.055 0 01-1.375.589c-.54.147-1.128.196-1.815.196h-4.12zm1.521-1.325h2.453c.736 0 1.325-.049 1.766-.196.442-.147.785-.344 1.03-.589.344-.343.638-.834.835-1.422.196-.59.294-1.325.294-2.208 0-1.178-.196-2.11-.589-2.748-.392-.638-.883-1.079-1.422-1.275-.393-.147-1.08-.246-1.963-.246h-2.404v8.684zm10.008 1.325V88.825h8.243v1.324h-6.722v3.484h6.33v1.324h-6.33v3.876h7.016v1.325h-8.537v.098zm10.107-3.68l1.423-.147c.049.589.245 1.03.49 1.423.246.343.638.638 1.129.883.54.245 1.08.343 1.766.343.589 0 1.08-.098 1.52-.245.442-.196.786-.392.982-.687.196-.294.344-.638.344-.981 0-.343-.099-.687-.295-.932-.196-.245-.54-.49-1.03-.687-.294-.098-.981-.294-2.012-.54-1.03-.245-1.766-.49-2.207-.736-.54-.294-.932-.637-1.227-1.079-.245-.442-.392-.883-.392-1.423 0-.588.147-1.128.49-1.619.344-.49.785-.883 1.423-1.128a5.77 5.77 0 012.11-.393c.834 0 1.57.148 2.256.393.638.294 1.129.687 1.472 1.177.344.54.54 1.129.54 1.816l-1.472.098c-.098-.736-.343-1.276-.785-1.62-.441-.392-1.128-.539-2.011-.539-.933 0-1.57.147-2.012.49-.392.344-.638.737-.638 1.227 0 .393.147.736.442 1.03.294.246 1.03.54 2.257.834 1.226.295 2.06.54 2.55.736.688.295 1.178.687 1.473 1.178.294.49.49 1.03.49 1.619s-.196 1.177-.54 1.717c-.343.54-.833.932-1.52 1.276-.638.294-1.374.441-2.208.441-1.03 0-1.913-.147-2.6-.441a3.78 3.78 0 01-1.668-1.374c-.295-.638-.54-1.325-.54-2.11zm11.382 3.68V88.825h1.521v11.431h-1.521zm9.518-4.465v-1.324h4.857v4.219a8.489 8.489 0 01-2.306 1.325 6.938 6.938 0 01-2.404.441c-1.128 0-2.158-.245-3.042-.736-.932-.49-1.619-1.177-2.06-2.06-.491-.933-.687-1.914-.687-3.042 0-1.129.245-2.159.687-3.091.441-.981 1.128-1.668 2.011-2.159a6.57 6.57 0 012.993-.687c.834 0 1.57.148 2.257.393a3.426 3.426 0 011.57 1.128c.392.491.687 1.08.883 1.865l-1.374.392c-.196-.589-.392-1.03-.638-1.373-.245-.344-.637-.59-1.079-.785a4.067 4.067 0 00-1.57-.295c-.687 0-1.275.098-1.766.294-.491.197-.932.491-1.227.834a5.57 5.57 0 00-.735 1.129c-.295.687-.442 1.472-.442 2.306 0 1.03.196 1.864.54 2.551.343.687.883 1.177 1.521 1.52a4.578 4.578 0 002.109.492c.638 0 1.276-.148 1.914-.393a6.13 6.13 0 001.422-.785v-2.11h-3.434v-.049zm7.065 4.465V88.825h1.57l5.985 8.978v-8.978H128v11.431h-1.57l-5.985-8.978v8.978h-1.472zM0 100.305V88.874h1.57l5.985 8.978v-8.978h1.472v11.431h-1.57l-5.985-8.978v8.978H0zm11.578 0V88.874h8.243v1.324h-6.722v3.484h6.33v1.324h-6.33v3.876h7.016v1.325h-8.537v.098zm9.371 0l4.366-11.431h1.62l4.66 11.431h-1.717l-1.325-3.434h-4.758l-1.227 3.434h-1.619zm3.287-4.71h3.876l-1.177-3.14c-.344-.981-.638-1.766-.785-2.355-.148.736-.344 1.472-.638 2.159l-1.276 3.336zm8.586 4.71V88.874h4.317c.736 0 1.325.049 1.717.098.54.098 1.03.294 1.423.54.392.245.687.637.932 1.079.245.49.344.981.344 1.57 0 .981-.295 1.815-.932 2.453-.638.687-1.718 1.03-3.337 1.03h-2.943v4.661h-1.521zm1.52-5.986h2.944c.981 0 1.668-.196 2.06-.54.393-.343.639-.882.639-1.52 0-.49-.099-.883-.344-1.227-.245-.343-.54-.54-.932-.686-.245-.05-.736-.099-1.423-.099h-2.943v4.073zm8.635.393c0-1.913.491-3.385 1.521-4.465 1.03-1.079 2.306-1.619 3.925-1.619 1.03 0 2.012.246 2.846.736.834.49 1.471 1.227 1.913 2.11.442.883.687 1.913.687 3.042 0 1.177-.245 2.207-.687 3.09-.49.933-1.128 1.62-1.962 2.061-.834.491-1.767.687-2.748.687-1.08 0-2.011-.245-2.894-.785-.834-.54-1.472-1.227-1.914-2.11-.441-.785-.687-1.717-.687-2.747zm1.57.049c0 1.374.393 2.453 1.129 3.238.736.785 1.668 1.178 2.796 1.178 1.129 0 2.06-.393 2.797-1.178.736-.785 1.079-1.913 1.079-3.385 0-.932-.147-1.717-.49-2.453a3.7 3.7 0 00-1.374-1.62 3.58 3.58 0 00-2.012-.588c-1.08 0-2.011.343-2.747 1.08-.785.784-1.178 2.01-1.178 3.728zm11.235 5.544V88.874h1.521V98.93h5.642v1.325h-7.163v.049zM0 73.64V0h10.008l38.66 57.794V0h9.371v73.64H48.031L9.32 15.75v57.89H0z" fill="#fff"/><path d="M127.806.049H67.951v9.714h59.855V.049zm0 31.841H67.951v9.763h59.855v-9.764zm.144 32.28H68.096v9.715h59.854V64.17z" fill="#fff"/><path opacity=".4" d="M127.951 83H0v1h127.951v-1zm0 22H0v1h127.951v-1z" fill="#fff"/></svg>